<svg xmlns="http://www.w3.org/2000/svg" id="Capa_1" data-name="Capa 1" viewBox="0 0 783.7 747.43"><defs><style>      .cls-1 {        fill: #fff;      }      .cls-2 {        fill: none;      }    </style></defs><rect width="783.7" height="747.43" rx="90" ry="90"></rect><g><path class="cls-1" d="m526.96,316.14l-96.54,64.98s-.69-130.55-86.01-130.55h-89.99v318.04c0,8.73-10.57,13.11-16.74,6.93l-77.53-77.53c-1.84-1.84-2.87-4.33-2.87-6.93V159.81c0-5.42,4.39-9.81,9.81-9.81h205.05s166.79,1.12,159.15,158.46c-.15,3.1-1.75,5.95-4.32,7.68h0Z"></path><polygon class="cls-1" points="268.71 381.12 350.99 322 626.42 597.43 485.28 597.43 268.71 381.12"></polygon></g><line class="cls-2" x1="624.78" y1="264.71" x2="237.39" y2="541.94"></line></svg>