<svg xmlns="http://www.w3.org/2000/svg" id="Capa_1" data-name="Capa 1" viewBox="0 0 1227.9 300.7"><defs><style>      .cls-1 {        stroke-width: 0px;      }    </style></defs><path class="cls-1" d="m306.9,219.4h-28.3V81.3h28.3v138.1h0Z"></path><path class="cls-1" d="m385.5,197.4h48.4v20.6c-10.2,2-22.5,2.9-36.8,2.9h-14.6c-17,0-29.4-3.7-37.1-11.1-7.7-7.4-11.5-19.5-11.5-36.3v-46.2c0-16.9,3.8-29.1,11.5-36.5s20-11.1,37.1-11.1h13.6c14.3,0,26.6,1,36.8,2.9v20.7h-47.4c-8,0-13.9,1.9-17.6,5.6s-5.6,10-5.6,18.8v45.4c0,8.8,1.9,15,5.6,18.7s9.6,5.6,17.6,5.6h0Z"></path><path class="cls-1" d="m489.2,81.3v61.4l47.2-61.4h31.9l-46.3,59.2,53.3,78.9h-31.7l-38.8-57.1-15.7,20.3v36.8h-28.3V81.3h28.4Z"></path><path class="cls-1" d="m662.7,92.4c-7.7-7.4-20-11.1-37.1-11.1h-35.2v23.6h32.3c8,0,13.9,1.9,17.6,5.6s5.6,10,5.6,18.8v42.3c0,8.8-1.9,15-5.6,18.7s-9.6,5.5-17.6,5.5h-32.3v23.6h35.2c17,0,29.4-3.7,37.1-11.1,7.7-7.4,11.5-19.5,11.5-36.3v-43.1c0-16.9-3.8-29.1-11.5-36.5Z"></path><path class="cls-1" d="m691.6,196.4v23h83.8v-23h-83.8Zm82.5-115.1h-82.5v23h82.5v-23Zm-5.1,55.5h-77.4v22.8h77.4v-22.8h0Z"></path><path class="cls-1" d="m835.7,134l29.5,6.1c11.8,2.5,20.1,6.7,24.9,12.6,4.8,5.9,7.2,14.6,7.2,26.2v7.5c0,23.1-13.5,34.6-40.5,34.6h-18.9c-15.6,0-28.5-1-38.8-2.9v-20.7h52.7c11.4,0,17.1-4.6,17.1-14v-5.3c0-4.3-1.4-7.6-4.3-9.9s-7.5-4.1-14-5.4l-25.6-5.3c-11.5-2.4-19.8-6.3-24.8-11.8s-7.5-13.4-7.5-23.8v-7.7c0-22.9,13.5-34.4,40.5-34.4h16.9c15.9,0,28.8,1,38.8,2.9v20.7h-46.8c-7.3,0-12.7,1-15.9,2.9-3.3,2-4.9,5.5-4.9,10.6v3.2c0,3.9,1.1,7,3.3,9.1,2.3,2.2,5.9,3.8,11.1,4.8h0Z"></path><path class="cls-1" d="m952.6,219.4h-28.3V81.3h28.3v138.1h0Z"></path><path class="cls-1" d="m1031.2,197.4h31.7v-34.2h-28.1v-23.6h55.5v77.9c-12.7,2.4-26.9,3.5-42.5,3.5h-19.5c-17,0-29.4-3.7-37.1-11.1-7.7-7.4-11.5-19.5-11.5-36.3v-46.2c0-16.9,3.8-29.1,11.5-36.5s20-11.1,37.1-11.1h16.1c13,0,25.2,1,36.8,2.9v20.7h-50c-7.9,0-13.7,1.9-17.5,5.7-3.8,3.8-5.7,10-5.7,18.7v45.4c0,8.7,1.9,14.9,5.7,18.6,3.7,3.7,9.6,5.6,17.5,5.6h0Z"></path><path class="cls-1" d="m1199.6,81.3h28.3v138.1h-30.1l-52.3-92.3v92.3h-28.3V81.3h30.1l52.3,92.3v-92.3Z"></path><g><path class="cls-1" d="m248.5,111.7l-64.9,43.7s-.5-87.7-57.8-87.7h-60.5v213.8c0,5.9-7.1,8.8-11.2,4.7L1.9,233.9c-1.2-1.2-1.9-2.9-1.9-4.7V6.6C0,3,3,0,6.6,0h137.8s112.1.8,107,106.5c-.1,2.1-1.2,4-2.9,5.2h0Z"></path><polygon class="cls-1" points="74.9 155.3 130.2 115.6 315.3 300.7 220.4 300.7 74.9 155.3"></polygon></g></svg>